<?xml version="1.0" encoding="UTF-8" standalone="no"?>
<!-- Created with Inkscape (http://www.inkscape.org/) -->

<svg
   xmlns:dc="http://purl.org/dc/elements/1.1/"
   xmlns:cc="http://creativecommons.org/ns#"
   xmlns:rdf="http://www.w3.org/1999/02/22-rdf-syntax-ns#"
   xmlns:svg="http://www.w3.org/2000/svg"
   xmlns="http://www.w3.org/2000/svg"
   xmlns:sodipodi="http://sodipodi.sourceforge.net/DTD/sodipodi-0.dtd"
   xmlns:inkscape="http://www.inkscape.org/namespaces/inkscape"
   id="svg2"
   version="1.1"
   inkscape:version="0.48.1 r9760"
   width="53.14875"
   height="58.396252"
   xml:space="preserve"
   sodipodi:docname="logoinf.svg"><metadata
     id="metadata8"><rdf:RDF><cc:Work
         rdf:about=""><dc:format>image/svg+xml</dc:format><dc:type
           rdf:resource="http://purl.org/dc/dcmitype/StillImage" /><dc:title /></cc:Work></rdf:RDF></metadata><defs
     id="defs6" /><sodipodi:namedview
     pagecolor="#ffffff"
     bordercolor="#666666"
     borderopacity="1"
     objecttolerance="10"
     gridtolerance="10"
     guidetolerance="10"
     inkscape:pageopacity="0"
     inkscape:pageshadow="2"
     inkscape:window-width="1680"
     inkscape:window-height="1006"
     id="namedview4"
     showgrid="false"
     inkscape:zoom="11.313709"
     inkscape:cx="38.407497"
     inkscape:cy="27.249692"
     inkscape:window-x="-4"
     inkscape:window-y="-3"
     inkscape:window-maximized="1"
     inkscape:current-layer="g10"
     fit-margin-top="0"
     fit-margin-left="0"
     fit-margin-right="0"
     fit-margin-bottom="0" /><g
     id="g10"
     inkscape:groupmode="layer"
     inkscape:label="logoinf"
     transform="matrix(1.25,0,0,-1.25,-26.575,84.96875)"><path
       d="m 42.952,67.975 -0.8643,0 0,-41.968 0.8643,0 0,41.968 z m 1.336,-4.272 -0.071,-0.86 c 10.485,-0.864 18.698,-9.792 18.698,-20.326 0,-11.246 -9.149,-20.395 -20.395,-20.395 -11.248,0 -20.396,9.149 -20.396,20.395 0,10.536 8.214,19.462 18.699,20.326 l -0.07,0.86 C 29.821,62.806 21.26,53.498 21.26,42.517 c 0,-11.723 9.537,-21.259 21.26,-21.259 11.722,0 21.259,9.536 21.259,21.259 0,10.979 -8.561,20.287 -19.491,21.186"
       style="fill:#231f20;fill-opacity:1;fill-rule:nonzero;stroke:none"
       id="path12"
       inkscape:connector-curvature="0" /></g></svg>