<?xml version="1.0" encoding="UTF-8" standalone="no"?>
<!-- Created with Inkscape (http://www.inkscape.org/) -->

<svg
   xmlns:dc="http://purl.org/dc/elements/1.1/"
   xmlns:cc="http://creativecommons.org/ns#"
   xmlns:rdf="http://www.w3.org/1999/02/22-rdf-syntax-ns#"
   xmlns:svg="http://www.w3.org/2000/svg"
   xmlns="http://www.w3.org/2000/svg"
   xmlns:sodipodi="http://sodipodi.sourceforge.net/DTD/sodipodi-0.dtd"
   xmlns:inkscape="http://www.inkscape.org/namespaces/inkscape"
   id="svg2"
   version="1.1"
   inkscape:version="0.48.1 r9760"
   width="106.375"
   height="56.700249"
   xml:space="preserve"
   sodipodi:docname="logotum.svg"><metadata
     id="metadata8"><rdf:RDF><cc:Work
         rdf:about=""><dc:format>image/svg+xml</dc:format><dc:type
           rdf:resource="http://purl.org/dc/dcmitype/StillImage" /><dc:title></dc:title></cc:Work></rdf:RDF></metadata><defs
     id="defs6"><clipPath
       clipPathUnits="userSpaceOnUse"
       id="clipPath22"><path
         d="m 0,438.004 325.199,0 0,15.598 -325.199,0 0,-15.598 z"
         id="path24"
         inkscape:connector-curvature="0" /></clipPath><clipPath
       clipPathUnits="userSpaceOnUse"
       id="clipPath34"><path
         d="m 325.203,81.6016 15.602,0 0,372.0004 -15.602,0 0,-372.0004 z"
         id="path36"
         inkscape:connector-curvature="0" /></clipPath><clipPath
       clipPathUnits="userSpaceOnUse"
       id="clipPath46"><path
         d="m 340.801,81.5977 73.199,0 0,15.601 -73.199,0 0,-15.601 z"
         id="path48"
         inkscape:connector-curvature="0" /></clipPath><clipPath
       clipPathUnits="userSpaceOnUse"
       id="clipPath58"><path
         d="m 412.801,81.6016 15.601,0 0,372.0004 -15.601,0 0,-372.0004 z"
         id="path60"
         inkscape:connector-curvature="0" /></clipPath><clipPath
       clipPathUnits="userSpaceOnUse"
       id="clipPath70"><path
         d="m 428.406,438.004 422.399,0 0,15.598 -422.399,0 0,-15.598 z"
         id="path72"
         inkscape:connector-curvature="0" /></clipPath><clipPath
       clipPathUnits="userSpaceOnUse"
       id="clipPath82"><path
         d="m 0,356.402 15.5977,0 0,82.801 -15.5977,0 0,-82.801 z"
         id="path84"
         inkscape:connector-curvature="0" /></clipPath><clipPath
       clipPathUnits="userSpaceOnUse"
       id="clipPath94"><path
         d="m 15.6055,356.406 57.5971,0 0,15.602 -57.5971,0 0,-15.602 z"
         id="path96"
         inkscape:connector-curvature="0" /></clipPath><clipPath
       clipPathUnits="userSpaceOnUse"
       id="clipPath106"><path
         d="m 73.199,0.0078125 15.6015,0 0,372.0001875 -15.6015,0 0,-372.0001875 z"
         id="path108"
         inkscape:connector-curvature="0" /></clipPath><clipPath
       clipPathUnits="userSpaceOnUse"
       id="clipPath118"><path
         d="m 88.8086,0.00390625 67.1994,0 0,15.60159375 -67.1994,0 0,-15.60159375 z"
         id="path120"
         inkscape:connector-curvature="0" /></clipPath><clipPath
       clipPathUnits="userSpaceOnUse"
       id="clipPath130"><path
         d="m 154.805,0.0078125 15.597,0 0,372.0001875 -15.597,0 0,-372.0001875 z"
         id="path132"
         inkscape:connector-curvature="0" /></clipPath><clipPath
       clipPathUnits="userSpaceOnUse"
       id="clipPath142"><path
         d="m 170.398,356.406 73.2,0 0,15.602 -73.2,0 0,-15.602 z"
         id="path144"
         inkscape:connector-curvature="0" /></clipPath><clipPath
       clipPathUnits="userSpaceOnUse"
       id="clipPath154"><path
         d="m 243.602,0.0078125 15.601,0 0,372.0001875 -15.601,0 0,-372.0001875 z"
         id="path156"
         inkscape:connector-curvature="0" /></clipPath><clipPath
       clipPathUnits="userSpaceOnUse"
       id="clipPath166"><path
         d="m 258.008,0.00390625 237.597,0 0,15.60159375 -237.597,0 0,-15.60159375 z"
         id="path168"
         inkscape:connector-curvature="0" /></clipPath><clipPath
       clipPathUnits="userSpaceOnUse"
       id="clipPath178"><path
         d="m 495.598,0.0078125 15.601,0 0,372.0001875 -15.601,0 0,-372.0001875 z"
         id="path180"
         inkscape:connector-curvature="0" /></clipPath><clipPath
       clipPathUnits="userSpaceOnUse"
       id="clipPath190"><path
         d="m 509.992,356.406 73.199,0 0,15.602 -73.199,0 0,-15.602 z"
         id="path192"
         inkscape:connector-curvature="0" /></clipPath><clipPath
       clipPathUnits="userSpaceOnUse"
       id="clipPath202"><path
         d="m 583.195,0.0078125 15.602,0 0,372.0001875 -15.602,0 0,-372.0001875 z"
         id="path204"
         inkscape:connector-curvature="0" /></clipPath><clipPath
       clipPathUnits="userSpaceOnUse"
       id="clipPath214"><path
         d="m 598.801,0.00390625 67.203,0 0,15.60159375 -67.203,0 0,-15.60159375 z"
         id="path216"
         inkscape:connector-curvature="0" /></clipPath><clipPath
       clipPathUnits="userSpaceOnUse"
       id="clipPath226"><path
         d="m 664.797,0.0078125 15.601,0 0,372.0001875 -15.601,0 0,-372.0001875 z"
         id="path228"
         inkscape:connector-curvature="0" /></clipPath><clipPath
       clipPathUnits="userSpaceOnUse"
       id="clipPath238"><path
         d="m 680.402,356.406 73.2,0 0,15.602 -73.2,0 0,-15.602 z"
         id="path240"
         inkscape:connector-curvature="0" /></clipPath><clipPath
       clipPathUnits="userSpaceOnUse"
       id="clipPath250"><path
         d="m 753.605,0.0078125 15.602,0 0,372.0001875 -15.602,0 0,-372.0001875 z"
         id="path252"
         inkscape:connector-curvature="0" /></clipPath><clipPath
       clipPathUnits="userSpaceOnUse"
       id="clipPath262"><path
         d="m 769.191,0.00390625 67.2,0 0,15.60159375 -67.2,0 0,-15.60159375 z"
         id="path264"
         inkscape:connector-curvature="0" /></clipPath><clipPath
       clipPathUnits="userSpaceOnUse"
       id="clipPath274"><path
         d="m 835,0 16,0 0,440 -16,0 0,-440 z"
         id="path276"
         inkscape:connector-curvature="0" /></clipPath></defs><sodipodi:namedview
     pagecolor="#ffffff"
     bordercolor="#666666"
     borderopacity="1"
     objecttolerance="10"
     gridtolerance="10"
     guidetolerance="10"
     inkscape:pageopacity="0"
     inkscape:pageshadow="2"
     inkscape:window-width="1680"
     inkscape:window-height="1006"
     id="namedview4"
     showgrid="false"
     inkscape:zoom="11.313709"
     inkscape:cx="54.294833"
     inkscape:cy="30.08777"
     inkscape:window-x="-4"
     inkscape:window-y="-3"
     inkscape:window-maximized="1"
     inkscape:current-layer="g10"
     fit-margin-top="0"
     fit-margin-left="0"
     fit-margin-right="0"
     fit-margin-bottom="0" /><g
     id="g10"
     inkscape:groupmode="layer"
     inkscape:label="logotum"
     transform="matrix(1.25,0,0,-1.25,0,56.70025)"><g
       id="g12"
       transform="scale(0.1,0.1)"><g
         id="g14"><path
           d="M 0,0 0,0 0,0 0,0 z"
           style="fill:#000000;fill-opacity:1;fill-rule:nonzero;stroke:none"
           id="path16"
           inkscape:connector-curvature="0" /></g><g
         id="g18"><g
           id="g20"
           clip-path="url(#clipPath22)"><g
             id="g26"
             transform="matrix(326.201,0,0,16.6005,-0.50025,437.501)"><rect
               x="0"
               y="0"
               width="1"
               height="1"
               transform="matrix(1,0,0,-1,0,1)"
               style="fill:#000000;fill-opacity:1;fill-rule:nonzero"
               id="rect28" /></g></g></g><g
         id="g30"><g
           id="g32"
           clip-path="url(#clipPath34)"><g
             id="g38"
             transform="matrix(16.6005,0,0,373,324.705,81.1008)"><rect
               x="0"
               y="0"
               width="1"
               height="1"
               transform="matrix(1,0,0,-1,0,1)"
               style="fill:#000000;fill-opacity:1;fill-rule:nonzero"
               id="rect40" /></g></g></g><g
         id="g42"><g
           id="g44"
           clip-path="url(#clipPath46)"><g
             id="g50"
             transform="matrix(74.2005,0,0,16.6005,340.301,81.0946)"><rect
               x="0"
               y="0"
               width="1"
               height="1"
               transform="matrix(1,0,0,-1,0,1)"
               style="fill:#000000;fill-opacity:1;fill-rule:nonzero"
               id="rect52" /></g></g></g><g
         id="g54"><g
           id="g56"
           clip-path="url(#clipPath58)"><g
             id="g62"
             transform="matrix(16.6005,0,0,373,412.303,81.1008)"><rect
               x="0"
               y="0"
               width="1"
               height="1"
               transform="matrix(1,0,0,-1,0,1)"
               style="fill:#000000;fill-opacity:1;fill-rule:nonzero"
               id="rect64" /></g></g></g><g
         id="g66"><g
           id="g68"
           clip-path="url(#clipPath70)"><g
             id="g74"
             transform="matrix(423.401,0,0,16.6005,427.908,437.501)"><rect
               x="0"
               y="0"
               width="1"
               height="1"
               transform="matrix(1,0,0,-1,0,1)"
               style="fill:#000000;fill-opacity:1;fill-rule:nonzero"
               id="rect76" /></g></g></g><g
         id="g78"><g
           id="g80"
           clip-path="url(#clipPath82)"><g
             id="g86"
             transform="matrix(16.6005,0,0,83.8005,-0.50025,355.901)"><rect
               x="0"
               y="0"
               width="1"
               height="1"
               transform="matrix(1,0,0,-1,0,1)"
               style="fill:#000000;fill-opacity:1;fill-rule:nonzero"
               id="rect88" /></g></g></g><g
         id="g90"><g
           id="g92"
           clip-path="url(#clipPath94)"><g
             id="g98"
             transform="matrix(58.6005,0,0,16.6005,15.1052,355.904)"><rect
               x="0"
               y="0"
               width="1"
               height="1"
               transform="matrix(1,0,0,-1,0,1)"
               style="fill:#000000;fill-opacity:1;fill-rule:nonzero"
               id="rect100" /></g></g></g><g
         id="g102"><g
           id="g104"
           clip-path="url(#clipPath106)"><g
             id="g110"
             transform="matrix(16.6005,0,0,373,72.7029,-0.495871)"><rect
               x="0"
               y="0"
               width="1"
               height="1"
               transform="matrix(1,0,0,-1,0,1)"
               style="fill:#000000;fill-opacity:1;fill-rule:nonzero"
               id="rect112" /></g></g></g><g
         id="g114"><g
           id="g116"
           clip-path="url(#clipPath118)"><g
             id="g122"
             transform="matrix(68.2005,0,0,16.6005,88.3083,-0.497244)"><rect
               x="0"
               y="0"
               width="1"
               height="1"
               transform="matrix(1,0,0,-1,0,1)"
               style="fill:#000000;fill-opacity:1;fill-rule:nonzero"
               id="rect124" /></g></g></g><g
         id="g126"><g
           id="g128"
           clip-path="url(#clipPath130)"><g
             id="g134"
             transform="matrix(16.6005,0,0,373,154.305,-0.495871)"><rect
               x="0"
               y="0"
               width="1"
               height="1"
               transform="matrix(1,0,0,-1,0,1)"
               style="fill:#000000;fill-opacity:1;fill-rule:nonzero"
               id="rect136" /></g></g></g><g
         id="g138"><g
           id="g140"
           clip-path="url(#clipPath142)"><g
             id="g146"
             transform="matrix(74.2005,0,0,16.6005,169.9,355.904)"><rect
               x="0"
               y="0"
               width="1"
               height="1"
               transform="matrix(1,0,0,-1,0,1)"
               style="fill:#000000;fill-opacity:1;fill-rule:nonzero"
               id="rect148" /></g></g></g><g
         id="g150"><g
           id="g152"
           clip-path="url(#clipPath154)"><g
             id="g158"
             transform="matrix(16.6005,0,0,373,243.104,-0.495871)"><rect
               x="0"
               y="0"
               width="1"
               height="1"
               transform="matrix(1,0,0,-1,0,1)"
               style="fill:#000000;fill-opacity:1;fill-rule:nonzero"
               id="rect160" /></g></g></g><g
         id="g162"><g
           id="g164"
           clip-path="url(#clipPath166)"><g
             id="g170"
             transform="matrix(238.6,0,0,16.6005,257.508,-0.497244)"><rect
               x="0"
               y="0"
               width="1"
               height="1"
               transform="matrix(1,0,0,-1,0,1)"
               style="fill:#000000;fill-opacity:1;fill-rule:nonzero"
               id="rect172" /></g></g></g><g
         id="g174"><g
           id="g176"
           clip-path="url(#clipPath178)"><g
             id="g182"
             transform="matrix(16.6005,0,0,373,495.101,-0.495871)"><rect
               x="0"
               y="0"
               width="1"
               height="1"
               transform="matrix(1,0,0,-1,0,1)"
               style="fill:#000000;fill-opacity:1;fill-rule:nonzero"
               id="rect184" /></g></g></g><g
         id="g186"><g
           id="g188"
           clip-path="url(#clipPath190)"><g
             id="g194"
             transform="matrix(74.2005,0,0,16.6005,509.495,355.904)"><rect
               x="0"
               y="0"
               width="1"
               height="1"
               transform="matrix(1,0,0,-1,0,1)"
               style="fill:#000000;fill-opacity:1;fill-rule:nonzero"
               id="rect196" /></g></g></g><g
         id="g198"><g
           id="g200"
           clip-path="url(#clipPath202)"><g
             id="g206"
             transform="matrix(16.6005,0,0,373,582.698,-0.495871)"><rect
               x="0"
               y="0"
               width="1"
               height="1"
               transform="matrix(1,0,0,-1,0,1)"
               style="fill:#000000;fill-opacity:1;fill-rule:nonzero"
               id="rect208" /></g></g></g><g
         id="g210"><g
           id="g212"
           clip-path="url(#clipPath214)"><g
             id="g218"
             transform="matrix(68.2005,0,0,16.6005,598.304,-0.497244)"><rect
               x="0"
               y="0"
               width="1"
               height="1"
               transform="matrix(1,0,0,-1,0,1)"
               style="fill:#000000;fill-opacity:1;fill-rule:nonzero"
               id="rect220" /></g></g></g><g
         id="g222"><g
           id="g224"
           clip-path="url(#clipPath226)"><g
             id="g230"
             transform="matrix(16.6005,0,0,373,664.3,-0.495871)"><rect
               x="0"
               y="0"
               width="1"
               height="1"
               transform="matrix(1,0,0,-1,0,1)"
               style="fill:#000000;fill-opacity:1;fill-rule:nonzero"
               id="rect232" /></g></g></g><g
         id="g234"><g
           id="g236"
           clip-path="url(#clipPath238)"><g
             id="g242"
             transform="matrix(74.2005,0,0,16.6005,679.905,355.904)"><rect
               x="0"
               y="0"
               width="1"
               height="1"
               transform="matrix(1,0,0,-1,0,1)"
               style="fill:#000000;fill-opacity:1;fill-rule:nonzero"
               id="rect244" /></g></g></g><g
         id="g246"><g
           id="g248"
           clip-path="url(#clipPath250)"><g
             id="g254"
             transform="matrix(16.6005,0,0,373,753.108,-0.495871)"><rect
               x="0"
               y="0"
               width="1"
               height="1"
               transform="matrix(1,0,0,-1,0,1)"
               style="fill:#000000;fill-opacity:1;fill-rule:nonzero"
               id="rect256" /></g></g></g><g
         id="g258"><g
           id="g260"
           clip-path="url(#clipPath262)"><g
             id="g266"
             transform="matrix(68.2005,0,0,16.6005,768.694,-0.497244)"><rect
               x="0"
               y="0"
               width="1"
               height="1"
               transform="matrix(1,0,0,-1,0,1)"
               style="fill:#000000;fill-opacity:1;fill-rule:nonzero"
               id="rect268" /></g></g></g><g
         id="g270"><g
           id="g272"
           clip-path="url(#clipPath274)"><g
             id="g278"
             transform="matrix(16.6005,0,0,440.2,834.71,-0.498618)"><rect
               x="0"
               y="0"
               width="1"
               height="1"
               transform="matrix(1,0,0,-1,0,1)"
               style="fill:#000000;fill-opacity:1;fill-rule:nonzero"
               id="rect280" /></g></g></g></g></g></svg>