<?xml version="1.0" encoding="UTF-8"?>
<svg xmlns="http://www.w3.org/2000/svg" xmlns:xlink="http://www.w3.org/1999/xlink" fill-opacity="1" color-rendering="auto" color-interpolation="auto" stroke="black" text-rendering="auto" stroke-linecap="square" width="695" stroke-miterlimit="10" stroke-opacity="1" shape-rendering="auto" fill="black" stroke-dasharray="none" font-weight="normal" stroke-width="1" height="351" font-family="'Dialog'" font-style="normal" stroke-linejoin="miter" font-size="12" stroke-dashoffset="0" image-rendering="auto">
  <!--Generated by ySVG-->
  <defs id="genericDefs"/>
  <g>
    <defs id="defs1">
      <clipPath clipPathUnits="userSpaceOnUse" id="clipPath1">
        <path d="M0 0 L695 0 L695 351 L0 351 L0 0 Z"/>
      </clipPath>
      <clipPath clipPathUnits="userSpaceOnUse" id="clipPath2">
        <path d="M-258 -15 L437 -15 L437 336 L-258 336 L-258 -15 Z"/>
      </clipPath>
    </defs>
    <g fill="white" transform="translate(258,15)" stroke="white">
      <rect x="-258" width="695" height="351" y="-15" clip-path="url(#clipPath2)" stroke="none"/>
    </g>
    <g fill="rgb(255,204,0)" transform="matrix(1,0,0,1,258,15)" stroke="rgb(255,204,0)">
      <rect x="0" y="180" clip-path="url(#clipPath2)" width="180" rx="4" ry="4" height="50" stroke="none"/>
    </g>
    <g stroke-miterlimit="1.45" font-family="sans-serif" transform="matrix(1,0,0,1,258,15)" stroke-linecap="butt">
      <text x="22.6553" xml:space="preserve" y="209.1543" clip-path="url(#clipPath2)" stroke="none">Expressions Language</text>
      <rect x="0" y="180" clip-path="url(#clipPath2)" fill="none" width="180" rx="4" ry="4" height="50"/>
    </g>
    <g fill="rgb(255,204,0)" transform="matrix(1,0,0,1,258,15)" stroke="rgb(255,204,0)">
      <rect x="0" y="90" clip-path="url(#clipPath2)" width="180" rx="4" ry="4" height="50" stroke="none"/>
    </g>
    <g stroke-miterlimit="1.45" font-family="sans-serif" transform="matrix(1,0,0,1,258,15)" stroke-linecap="butt">
      <text x="23.7832" xml:space="preserve" y="119.1543" clip-path="url(#clipPath2)" stroke="none">Statements Language</text>
      <rect x="0" y="90" clip-path="url(#clipPath2)" fill="none" width="180" rx="4" ry="4" height="50"/>
    </g>
    <g fill="rgb(255,204,0)" transform="matrix(1,0,0,1,258,15)" stroke="rgb(255,204,0)">
      <rect x="0" y="0" clip-path="url(#clipPath2)" width="180" rx="4" ry="4" height="50" stroke="none"/>
    </g>
    <g stroke-miterlimit="1.45" font-family="sans-serif" transform="matrix(1,0,0,1,258,15)" stroke-linecap="butt">
      <text x="33.5391" xml:space="preserve" y="29.1543" clip-path="url(#clipPath2)" stroke="none">Modules Language</text>
      <rect x="0" y="0" clip-path="url(#clipPath2)" fill="none" width="180" rx="4" ry="4" height="50"/>
    </g>
    <g fill="white" transform="matrix(1,0,0,1,258,15)" stroke="white">
      <rect x="242" y="180" clip-path="url(#clipPath2)" width="180" rx="4" ry="4" height="50" stroke="none"/>
    </g>
    <g stroke-miterlimit="1.45" font-family="sans-serif" transform="matrix(1,0,0,1,258,15)" stroke-linecap="butt">
      <text x="249.6318" xml:space="preserve" y="209.1543" clip-path="url(#clipPath2)" stroke="none">C++ Statements Language</text>
      <rect x="242" y="180" clip-path="url(#clipPath2)" fill="none" width="180" rx="4" ry="4" height="50"/>
    </g>
    <g fill="white" transform="matrix(1,0,0,1,258,15)" stroke="white">
      <rect x="-243" y="90" clip-path="url(#clipPath2)" width="180" rx="4" ry="4" height="50" stroke="none"/>
    </g>
    <g stroke-miterlimit="1.45" font-family="sans-serif" transform="matrix(1,0,0,1,258,15)" stroke-linecap="butt">
      <text x="-236.4961" xml:space="preserve" y="119.1543" clip-path="url(#clipPath2)" stroke="none">C++ Expressions Language</text>
      <rect x="-243" y="90" clip-path="url(#clipPath2)" fill="none" width="180" rx="4" ry="4" height="50"/>
    </g>
    <g fill="rgb(255,204,0)" transform="matrix(1,0,0,1,258,15)" stroke="rgb(255,204,0)">
      <rect x="-145" y="290.5" clip-path="url(#clipPath2)" width="30" rx="4" ry="4" height="30" stroke="none"/>
    </g>
    <g stroke-miterlimit="1.45" font-family="sans-serif" transform="matrix(1,0,0,1,258,15)" stroke-linecap="butt">
      <text x="-96.4092" xml:space="preserve" y="309.6543" clip-path="url(#clipPath2)" stroke="none">Existing Languages</text>
      <rect x="-145" y="290.5" clip-path="url(#clipPath2)" fill="none" width="30" rx="4" ry="4" height="30"/>
    </g>
    <g fill="white" transform="matrix(1,0,0,1,258,15)" stroke="white">
      <rect x="80" y="290.5" clip-path="url(#clipPath2)" width="30" rx="4" ry="4" height="30" stroke="none"/>
    </g>
    <g stroke-miterlimit="1.45" font-family="sans-serif" transform="matrix(1,0,0,1,258,15)" stroke-linecap="butt">
      <text x="136.4248" xml:space="preserve" y="309.6543" clip-path="url(#clipPath2)" stroke="none">New Extensions</text>
      <rect x="80" y="290.5" clip-path="url(#clipPath2)" fill="none" width="30" rx="4" ry="4" height="30"/>
      <path fill="none" d="M90 140.0049 L90 172.0238" clip-path="url(#clipPath2)"/>
      <path d="M90 180.0238 L95 168.0238 L90 171.0238 L85 168.0238 Z" clip-path="url(#clipPath2)" stroke="none"/>
      <text x="94" xml:space="preserve" y="164.1543" clip-path="url(#clipPath2)" stroke="none">uses</text>
      <path fill="none" d="M90 50.0049 L90 82.0238" clip-path="url(#clipPath2)"/>
      <path d="M90 90.0238 L95 78.0238 L90 81.0238 L85 78.0238 Z" clip-path="url(#clipPath2)" stroke="none"/>
      <text x="94" xml:space="preserve" y="74.1543" clip-path="url(#clipPath2)" stroke="none">uses</text>
      <path fill="none" d="M299.9939 180.0065 L243 135.5 L191 120.5 L180.0024 119.9011" clip-path="url(#clipPath2)"/>
      <path fill="white" d="M180.0024 119.9011 L195.6525 126.7622 L196.305 114.78 Z" clip-path="url(#clipPath2)" stroke="none"/>
      <path fill="none" d="M180.0024 119.9011 L195.6525 126.7622 L196.305 114.78 Z" clip-path="url(#clipPath2)"/>
      <text x="281.1554" xml:space="preserve" y="157.3418" clip-path="url(#clipPath2)" stroke="none">extends</text>
      <path fill="none" d="M-122.4927 140.0089 L-67 185.5 L-12 205.5 L-6 205 L-0.0469 205" clip-path="url(#clipPath2)"/>
      <path fill="white" d="M-0.0469 205 L-16.0469 199 L-16.0469 211 Z" clip-path="url(#clipPath2)" stroke="none"/>
      <path fill="none" d="M-0.0469 205 L-16.0469 199 L-16.0469 211 Z" clip-path="url(#clipPath2)"/>
      <text x="-162.1994" xml:space="preserve" y="163.2637" clip-path="url(#clipPath2)" stroke="none">extends</text>
    </g>
  </g>
</svg>
