<?xml version="1.0" encoding="UTF-8"?>
<svg xmlns="http://www.w3.org/2000/svg" xmlns:xlink="http://www.w3.org/1999/xlink" fill-opacity="1" color-rendering="auto" color-interpolation="auto" stroke="black" text-rendering="auto" stroke-linecap="square" width="800" stroke-miterlimit="10" stroke-opacity="1" shape-rendering="auto" fill="black" stroke-dasharray="none" font-weight="normal" stroke-width="1" height="516" font-family="'Dialog'" font-style="normal" stroke-linejoin="miter" font-size="12" stroke-dashoffset="0" image-rendering="auto">
  <!--Generated by ySVG-->
  <defs id="genericDefs"/>
  <g>
    <defs id="defs1">
      <clipPath clipPathUnits="userSpaceOnUse" id="clipPath1">
        <path d="M0 0 L800 0 L800 516 L0 516 L0 0 Z"/>
      </clipPath>
      <clipPath clipPathUnits="userSpaceOnUse" id="clipPath2">
        <path d="M83 -31 L883 -31 L883 485 L83 485 L83 -31 Z"/>
      </clipPath>
    </defs>
    <g fill="white" transform="translate(-83,31)" stroke="white">
      <rect x="83" width="800" height="516" y="-31" clip-path="url(#clipPath2)" stroke="none"/>
    </g>
    <g fill="rgb(255,204,0)" transform="matrix(1,0,0,1,-83,31)" stroke="rgb(255,204,0)">
      <rect x="403.0703" y="0" clip-path="url(#clipPath2)" width="110.0977" rx="4" ry="4" height="30" stroke="none"/>
    </g>
    <g stroke-miterlimit="1.45" font-family="sans-serif" transform="matrix(1,0,0,1,-83,31)" stroke-linecap="butt">
      <text x="415.0703" xml:space="preserve" y="19.1543" clip-path="url(#clipPath2)" stroke="none">Function abs()</text>
      <rect x="403.0703" y="0" clip-path="url(#clipPath2)" fill="none" width="110.0977" rx="4" ry="4" height="30"/>
    </g>
    <g fill="rgb(255,204,0)" transform="matrix(1,0,0,1,-83,31)" stroke="rgb(255,204,0)">
      <rect x="201.6641" y="70" clip-path="url(#clipPath2)" width="133.9629" rx="4" ry="4" height="30" stroke="none"/>
    </g>
    <g stroke-miterlimit="1.45" font-family="sans-serif" transform="matrix(1,0,0,1,-83,31)" stroke-linecap="butt">
      <text x="213.6641" xml:space="preserve" y="89.1543" clip-path="url(#clipPath2)" stroke="none">Return type: int16</text>
      <rect x="201.6641" y="70" clip-path="url(#clipPath2)" fill="none" width="133.9629" rx="4" ry="4" height="30"/>
    </g>
    <g fill="rgb(255,204,0)" transform="matrix(1,0,0,1,-83,31)" stroke="rgb(255,204,0)">
      <rect x="649.0723" y="70" clip-path="url(#clipPath2)" width="98.707" rx="4" ry="4" height="30" stroke="none"/>
    </g>
    <g stroke-miterlimit="1.45" font-family="sans-serif" transform="matrix(1,0,0,1,-83,31)" stroke-linecap="butt">
      <text x="661.0723" xml:space="preserve" y="89.1543" clip-path="url(#clipPath2)" stroke="none">Argument: x</text>
      <rect x="649.0723" y="70" clip-path="url(#clipPath2)" fill="none" width="98.707" rx="4" ry="4" height="30"/>
    </g>
    <g fill="rgb(255,204,0)" transform="matrix(1,0,0,1,-83,31)" stroke="rgb(255,204,0)">
      <rect x="621.8555" y="140" clip-path="url(#clipPath2)" width="153.1406" rx="4" ry="4" height="30" stroke="none"/>
    </g>
    <g stroke-miterlimit="1.45" font-family="sans-serif" transform="matrix(1,0,0,1,-83,31)" stroke-linecap="butt">
      <text x="633.8555" xml:space="preserve" y="159.1543" clip-path="url(#clipPath2)" stroke="none">Argument type: int16</text>
      <rect x="621.8555" y="140" clip-path="url(#clipPath2)" fill="none" width="153.1406" rx="4" ry="4" height="30"/>
    </g>
    <g fill="rgb(255,204,0)" transform="matrix(1,0,0,1,-83,31)" stroke="rgb(255,204,0)">
      <rect x="355.627" y="70" clip-path="url(#clipPath2)" width="204.9844" rx="4" ry="4" height="30" stroke="none"/>
    </g>
    <g stroke-miterlimit="1.45" font-family="sans-serif" transform="matrix(1,0,0,1,-83,31)" stroke-linecap="butt">
      <text x="367.627" xml:space="preserve" y="89.1543" clip-path="url(#clipPath2)" stroke="none">Function body: Statement List</text>
      <rect x="355.627" y="70" clip-path="url(#clipPath2)" fill="none" width="204.9844" rx="4" ry="4" height="30"/>
    </g>
    <g fill="rgb(255,204,0)" transform="matrix(1,0,0,1,-83,31)" stroke="rgb(255,204,0)">
      <rect x="408.7568" y="140" clip-path="url(#clipPath2)" width="98.7246" rx="4" ry="4" height="30" stroke="none"/>
    </g>
    <g stroke-miterlimit="1.45" font-family="sans-serif" transform="matrix(1,0,0,1,-83,31)" stroke-linecap="butt">
      <text x="420.7568" xml:space="preserve" y="159.1543" clip-path="url(#clipPath2)" stroke="none">If Statement</text>
      <rect x="408.7568" y="140" clip-path="url(#clipPath2)" fill="none" width="98.7246" rx="4" ry="4" height="30"/>
    </g>
    <g fill="rgb(255,204,0)" transform="matrix(1,0,0,1,-83,31)" stroke="rgb(255,204,0)">
      <rect x="137.938" y="210" clip-path="url(#clipPath2)" width="131.5957" rx="4" ry="4" height="30" stroke="none"/>
    </g>
    <g stroke-miterlimit="1.45" font-family="sans-serif" transform="matrix(1,0,0,1,-83,31)" stroke-linecap="butt">
      <text x="149.938" xml:space="preserve" y="229.1543" clip-path="url(#clipPath2)" stroke="none">Condition: x &gt;= 0</text>
      <rect x="137.938" y="210" clip-path="url(#clipPath2)" fill="none" width="131.5957" rx="4" ry="4" height="30"/>
    </g>
    <g fill="rgb(255,204,0)" transform="matrix(1,0,0,1,-83,31)" stroke="rgb(255,204,0)">
      <rect x="231.2949" y="280" clip-path="url(#clipPath2)" width="141.0586" rx="4" ry="4" height="30" stroke="none"/>
    </g>
    <g stroke-miterlimit="1.45" font-family="sans-serif" transform="matrix(1,0,0,1,-83,31)" stroke-linecap="butt">
      <text x="243.2949" xml:space="preserve" y="299.1543" clip-path="url(#clipPath2)" stroke="none">Right part: Literal 0</text>
      <rect x="231.2949" y="280" clip-path="url(#clipPath2)" fill="none" width="141.0586" rx="4" ry="4" height="30"/>
    </g>
    <g fill="rgb(255,204,0)" transform="matrix(1,0,0,1,-83,31)" stroke="rgb(255,204,0)">
      <rect x="98.0884" y="340" clip-path="url(#clipPath2)" width="211.2949" rx="4" ry="4" height="30" stroke="none"/>
    </g>
    <g stroke-miterlimit="1.45" font-family="sans-serif" transform="matrix(1,0,0,1,-83,31)" stroke-linecap="butt">
      <text x="110.0884" xml:space="preserve" y="359.1543" clip-path="url(#clipPath2)" stroke="none">Left part: Parameter Reference</text>
      <rect x="98.0884" y="340" clip-path="url(#clipPath2)" fill="none" width="211.2949" rx="4" ry="4" height="30"/>
    </g>
    <g fill="rgb(255,204,0)" transform="matrix(1,0,0,1,-83,31)" stroke="rgb(255,204,0)">
      <rect x="369.0479" y="210" clip-path="url(#clipPath2)" width="178.1426" rx="4" ry="4" height="30" stroke="none"/>
    </g>
    <g stroke-miterlimit="1.45" font-family="sans-serif" transform="matrix(1,0,0,1,-83,31)" stroke-linecap="butt">
      <text x="381.0479" xml:space="preserve" y="229.1543" clip-path="url(#clipPath2)" stroke="none">Then part: Statement List</text>
      <rect x="369.0479" y="210" clip-path="url(#clipPath2)" fill="none" width="178.1426" rx="4" ry="4" height="30"/>
    </g>
    <g fill="rgb(255,204,0)" transform="matrix(1,0,0,1,-83,31)" stroke="rgb(255,204,0)">
      <rect x="392.3535" y="280" clip-path="url(#clipPath2)" width="131.5312" rx="4" ry="4" height="30" stroke="none"/>
    </g>
    <g stroke-miterlimit="1.45" font-family="sans-serif" transform="matrix(1,0,0,1,-83,31)" stroke-linecap="butt">
      <text x="404.3535" xml:space="preserve" y="299.1543" clip-path="url(#clipPath2)" stroke="none">Return Statement</text>
      <rect x="392.3535" y="280" clip-path="url(#clipPath2)" fill="none" width="131.5312" rx="4" ry="4" height="30"/>
    </g>
    <g fill="rgb(255,204,0)" transform="matrix(1,0,0,1,-83,31)" stroke="rgb(255,204,0)">
      <rect x="345.4814" y="350" clip-path="url(#clipPath2)" width="225.2754" rx="4" ry="4" height="30" stroke="none"/>
    </g>
    <g stroke-miterlimit="1.45" font-family="sans-serif" transform="matrix(1,0,0,1,-83,31)" stroke-linecap="butt">
      <text x="357.4814" xml:space="preserve" y="369.1543" clip-path="url(#clipPath2)" stroke="none">Expression: Parameter Reference</text>
      <rect x="345.4814" y="350" clip-path="url(#clipPath2)" fill="none" width="225.2754" rx="4" ry="4" height="30"/>
    </g>
    <g fill="rgb(255,204,0)" transform="matrix(1,0,0,1,-83,31)" stroke="rgb(255,204,0)">
      <rect x="621.8555" y="210" clip-path="url(#clipPath2)" width="179.0215" rx="4" ry="4" height="30" stroke="none"/>
    </g>
    <g stroke-miterlimit="1.45" font-family="sans-serif" transform="matrix(1,0,0,1,-83,31)" stroke-linecap="butt">
      <text x="633.8555" xml:space="preserve" y="229.1543" clip-path="url(#clipPath2)" stroke="none">Else part: Statements List</text>
      <rect x="621.8555" y="210" clip-path="url(#clipPath2)" fill="none" width="179.0215" rx="4" ry="4" height="30"/>
    </g>
    <g fill="rgb(255,204,0)" transform="matrix(1,0,0,1,-83,31)" stroke="rgb(255,204,0)">
      <rect x="645.6006" y="280" clip-path="url(#clipPath2)" width="131.5312" rx="4" ry="4" height="30" stroke="none"/>
    </g>
    <g stroke-miterlimit="1.45" font-family="sans-serif" transform="matrix(1,0,0,1,-83,31)" stroke-linecap="butt">
      <text x="657.6006" xml:space="preserve" y="299.1543" clip-path="url(#clipPath2)" stroke="none">Return Statement</text>
      <rect x="645.6006" y="280" clip-path="url(#clipPath2)" fill="none" width="131.5312" rx="4" ry="4" height="30"/>
    </g>
    <g fill="rgb(255,204,0)" transform="matrix(1,0,0,1,-83,31)" stroke="rgb(255,204,0)">
      <rect x="590.7568" y="350" clip-path="url(#clipPath2)" width="241.2188" rx="4" ry="4" height="30" stroke="none"/>
    </g>
    <g stroke-miterlimit="1.45" font-family="sans-serif" transform="matrix(1,0,0,1,-83,31)" stroke-linecap="butt">
      <text x="602.7568" xml:space="preserve" y="369.1543" clip-path="url(#clipPath2)" stroke="none">Expression: Unary Minus Expression</text>
      <rect x="590.7568" y="350" clip-path="url(#clipPath2)" fill="none" width="241.2188" rx="4" ry="4" height="30"/>
    </g>
    <g fill="rgb(255,204,0)" transform="matrix(1,0,0,1,-83,31)" stroke="rgb(255,204,0)">
      <rect x="598.7285" y="420" clip-path="url(#clipPath2)" width="225.2754" rx="4" ry="4" height="30" stroke="none"/>
    </g>
    <g stroke-miterlimit="1.45" font-family="sans-serif" transform="matrix(1,0,0,1,-83,31)" stroke-linecap="butt">
      <text x="610.7285" xml:space="preserve" y="439.1543" clip-path="url(#clipPath2)" stroke="none">Expression: Parameter Reference</text>
      <rect x="598.7285" y="420" clip-path="url(#clipPath2)" fill="none" width="225.2754" rx="4" ry="4" height="30"/>
      <path fill="none" d="M417.5507 29.9878 L316.757 67.2255" clip-path="url(#clipPath2)"/>
      <path d="M309.2527 69.9979 L322.2419 70.5294 L317.695 66.8789 L318.7763 61.1491 Z" clip-path="url(#clipPath2)" stroke="none"/>
      <path fill="none" d="M509.5422 29.9792 L642.7402 68.7791" clip-path="url(#clipPath2)"/>
      <path d="M650.421 71.0165 L640.2982 62.8599 L641.7801 68.4994 L637.5015 72.4609 Z" clip-path="url(#clipPath2)" stroke="none"/>
      <path fill="none" d="M698.4258 100.0049 L698.4258 131.9891" clip-path="url(#clipPath2)"/>
      <path d="M698.4258 139.9891 L703.4258 127.9891 L698.4258 130.9891 L693.4258 127.9891 Z" clip-path="url(#clipPath2)" stroke="none"/>
      <path fill="none" d="M458.1191 30.0049 L458.1191 61.9891" clip-path="url(#clipPath2)"/>
      <path d="M458.1191 69.9891 L463.1191 57.9891 L458.1191 60.9891 L453.1191 57.9891 Z" clip-path="url(#clipPath2)" stroke="none"/>
      <path fill="none" d="M458.1191 100.0049 L458.1191 131.9891" clip-path="url(#clipPath2)"/>
      <path d="M458.1191 139.9891 L463.1191 127.9891 L458.1191 130.9891 L453.1191 127.9891 Z" clip-path="url(#clipPath2)" stroke="none"/>
      <path fill="none" d="M409.5218 168.3728 L265.9352 207.8843" clip-path="url(#clipPath2)"/>
      <path d="M258.2219 210.0068 L271.1184 211.6438 L266.8994 207.619 L268.4653 202.0022 Z" clip-path="url(#clipPath2)" stroke="none"/>
      <path fill="none" d="M224.7377 239.9878 L274.2717 275.3373" clip-path="url(#clipPath2)"/>
      <path d="M280.7835 279.9845 L273.9202 268.9439 L273.4577 274.7564 L268.1113 277.0837 Z" clip-path="url(#clipPath2)" stroke="none"/>
      <path fill="none" d="M203.7358 240.0122 L203.7358 331.9808" clip-path="url(#clipPath2)"/>
      <path d="M203.7358 339.9808 L208.7358 327.9808 L203.7358 330.9808 L198.7358 327.9808 Z" clip-path="url(#clipPath2)" stroke="none"/>
      <path fill="none" stroke-dasharray="4,3,0,3" d="M177.6186 339.9978 L111.4355 301.981 L111.4355 185.3866 L185.5558 185.3866 L185.5558 63.5284 L336.2468 -15.764 L572.5624 -15.4835 L673.3988 65.0196" clip-path="url(#clipPath2)" stroke-linecap="round"/>
      <path stroke-dasharray="4,3,0,3" d="M679.6508 70.0109 L673.3923 58.6165 L672.6173 64.3957 L667.1533 66.4314 Z" clip-path="url(#clipPath2)" stroke-linecap="round" stroke="none"/>
      <path fill="none" d="M458.1191 170.0049 L458.1191 201.9891" clip-path="url(#clipPath2)"/>
      <path d="M458.1191 209.9891 L463.1191 197.9891 L458.1191 200.9891 L453.1191 197.9891 Z" clip-path="url(#clipPath2)" stroke="none"/>
      <path fill="none" d="M458.1191 240.0049 L458.1191 271.9891" clip-path="url(#clipPath2)"/>
      <path d="M458.1191 279.9891 L463.1191 267.9891 L458.1191 270.9891 L453.1191 267.9891 Z" clip-path="url(#clipPath2)" stroke="none"/>
      <path fill="none" d="M458.1191 310.0049 L458.1191 341.9891" clip-path="url(#clipPath2)"/>
      <path d="M458.1191 349.9891 L463.1191 337.9891 L458.1191 340.9891 L453.1191 337.9891 Z" clip-path="url(#clipPath2)" stroke="none"/>
      <path fill="none" stroke-dasharray="4,3,0,3" d="M458.3104 380.0215 L459.0075 434.7596 L597.9205 469.8342 L823.7635 469.8342 L867.6434 450.1549 L867.6434 69.7264 L826.1504 69.7264 L755.7315 78.1473" clip-path="url(#clipPath2)" stroke-linecap="round"/>
      <path stroke-dasharray="4,3,0,3" d="M747.7881 79.0972 L760.2969 82.637 L756.7244 78.0285 L759.1095 72.7077 Z" clip-path="url(#clipPath2)" stroke-linecap="round" stroke="none"/>
      <path fill="none" d="M506.685 168.4241 L649.4118 207.8752" clip-path="url(#clipPath2)"/>
      <path d="M657.1227 210.0066 L646.8885 201.9902 L648.4479 207.6088 L644.2243 211.6288 Z" clip-path="url(#clipPath2)" stroke="none"/>
      <path fill="none" d="M711.3662 240.0049 L711.3662 271.9891" clip-path="url(#clipPath2)"/>
      <path d="M711.3662 279.9891 L716.3662 267.9891 L711.3662 270.9891 L706.3662 267.9891 Z" clip-path="url(#clipPath2)" stroke="none"/>
      <path fill="none" d="M711.3662 310.0049 L711.3662 341.9891" clip-path="url(#clipPath2)"/>
      <path d="M711.3662 349.9891 L716.3662 337.9891 L711.3662 340.9891 L706.3662 337.9891 Z" clip-path="url(#clipPath2)" stroke="none"/>
      <path fill="none" d="M711.3662 380.0049 L711.3662 411.9891" clip-path="url(#clipPath2)"/>
      <path d="M711.3662 419.9891 L716.3662 407.9891 L711.3662 410.9891 L706.3662 407.9891 Z" clip-path="url(#clipPath2)" stroke="none"/>
      <path fill="none" stroke-dasharray="4,3,0,3" d="M823.9769 435 L852.3792 435 L852.3792 100.0489 L824.5966 100.0489 L755.7474 91.837" clip-path="url(#clipPath2)" stroke-linecap="round"/>
      <path stroke-dasharray="4,3,0,3" d="M747.8037 90.8895 L759.1271 97.2755 L756.7404 91.9554 L760.3114 87.3459 Z" clip-path="url(#clipPath2)" stroke-linecap="round" stroke="none"/>
    </g>
  </g>
</svg>
