<?xml version="1.0" encoding="UTF-8" standalone="no"?>
<svg
   xmlns:dc="http://purl.org/dc/elements/1.1/"
   xmlns:cc="http://creativecommons.org/ns#"
   xmlns:rdf="http://www.w3.org/1999/02/22-rdf-syntax-ns#"
   xmlns:svg="http://www.w3.org/2000/svg"
   xmlns="http://www.w3.org/2000/svg"
   xmlns:sodipodi="http://sodipodi.sourceforge.net/DTD/sodipodi-0.dtd"
   xmlns:inkscape="http://www.inkscape.org/namespaces/inkscape"
   fill-opacity="1"
   color-rendering="auto"
   color-interpolation="auto"
   stroke="black"
   text-rendering="auto"
   stroke-linecap="square"
   width="445"
   stroke-miterlimit="10"
   stroke-opacity="1"
   shape-rendering="auto"
   fill="black"
   stroke-dasharray="none"
   font-weight="normal"
   stroke-width="1"
   height="415"
   font-family="'Dialog'"
   font-style="normal"
   stroke-linejoin="miter"
   font-size="12"
   stroke-dashoffset="0"
   image-rendering="auto"
   id="svg2"
   version="1.1"
   inkscape:version="0.48.3.1 r9886"
   sodipodi:docname="ConceptHierarchies.svg"
   inkscape:export-filename="/home/zaur/Documents/Studies/MasterThesis/Presentation/figures/ConceptHierarchies.png"
   inkscape:export-xdpi="242.6747"
   inkscape:export-ydpi="242.6747">
  <metadata
     id="metadata200">
    <rdf:RDF>
      <cc:Work
         rdf:about="">
        <dc:format>image/svg+xml</dc:format>
        <dc:type
           rdf:resource="http://purl.org/dc/dcmitype/StillImage" />
        <dc:title></dc:title>
      </cc:Work>
    </rdf:RDF>
  </metadata>
  <sodipodi:namedview
     pagecolor="#ffffff"
     bordercolor="#666666"
     borderopacity="1"
     objecttolerance="10"
     gridtolerance="10"
     guidetolerance="10"
     inkscape:pageopacity="0"
     inkscape:pageshadow="2"
     inkscape:window-width="640"
     inkscape:window-height="480"
     id="namedview198"
     showgrid="false"
     inkscape:zoom="0.5686747"
     inkscape:cx="222.5"
     inkscape:cy="207.5"
     inkscape:window-x="0"
     inkscape:window-y="0"
     inkscape:window-maximized="0"
     inkscape:current-layer="svg2" />
  <!--Generated by ySVG-->
  <defs
     id="genericDefs" />
  <g
     id="g5">
    <defs
       id="defs1">
      <clipPath
         clipPathUnits="userSpaceOnUse"
         id="clipPath1">
        <path
           d="M0 0 L445 0 L445 415 L0 415 L0 0 Z"
           id="path9" />
      </clipPath>
      <clipPath
         clipPathUnits="userSpaceOnUse"
         id="clipPath2">
        <path
           d="M-15 -15 L430 -15 L430 400 L-15 400 L-15 -15 Z"
           id="path12" />
      </clipPath>
    </defs>
    <g
       fill="white"
       transform="translate(15,15)"
       stroke="white"
       id="g14">
      <rect
         x="-15"
         width="445"
         height="415"
         y="-15"
         clip-path="url(#clipPath2)"
         stroke="none"
         id="rect16" />
    </g>
    <g
       fill="rgb(226,225,225)"
       transform="matrix(1,0,0,1,15,15)"
       stroke="rgb(226,225,225)"
       id="g18">
      <rect
         x="73.353"
         y="285"
         clip-path="url(#clipPath2)"
         width="87.1465"
         rx="4"
         ry="4"
         height="30"
         stroke="none"
         id="rect20" />
    </g>
    <g
       stroke-miterlimit="1.45"
       font-family="sans-serif"
       transform="matrix(1,0,0,1,15,15)"
       stroke-linecap="butt"
       id="g22">
      <text
         x="85.353"
         xml:space="preserve"
         y="304.1543"
         clip-path="url(#clipPath2)"
         stroke="none"
         id="text24">Statement</text>
      <rect
         x="73.353"
         y="285"
         clip-path="url(#clipPath2)"
         fill="none"
         width="87.1465"
         rx="4"
         ry="4"
         height="30"
         id="rect26" />
    </g>
    <g
       fill="rgb(226,225,225)"
       transform="matrix(1,0,0,1,15,15)"
       stroke="rgb(226,225,225)"
       id="g28">
      <rect
         x="0"
         y="355"
         clip-path="url(#clipPath2)"
         width="98.7246"
         rx="4"
         ry="4"
         height="30"
         stroke="none"
         id="rect30" />
    </g>
    <g
       stroke-miterlimit="1.45"
       font-family="sans-serif"
       transform="matrix(1,0,0,1,15,15)"
       stroke-linecap="butt"
       id="g32">
      <text
         x="12"
         xml:space="preserve"
         y="374.1543"
         clip-path="url(#clipPath2)"
         stroke="none"
         id="text34">If Statement</text>
      <rect
         x="0"
         y="355"
         clip-path="url(#clipPath2)"
         fill="none"
         width="98.7246"
         rx="4"
         ry="4"
         height="30"
         id="rect36" />
    </g>
    <g
       fill="rgb(226,225,225)"
       transform="matrix(1,0,0,1,15,15)"
       stroke="rgb(226,225,225)"
       id="g38">
      <rect
         x="118.7246"
         y="355"
         clip-path="url(#clipPath2)"
         width="131.5312"
         rx="4"
         ry="4"
         height="30"
         stroke="none"
         id="rect40" />
    </g>
    <g
       stroke-miterlimit="1.45"
       font-family="sans-serif"
       transform="matrix(1,0,0,1,15,15)"
       stroke-linecap="butt"
       id="g42">
      <text
         x="130.7246"
         xml:space="preserve"
         y="374.1543"
         clip-path="url(#clipPath2)"
         stroke="none"
         id="text44">Return Statement</text>
      <rect
         x="118.7246"
         y="355"
         clip-path="url(#clipPath2)"
         fill="none"
         width="131.5312"
         rx="4"
         ry="4"
         height="30"
         id="rect46" />
    </g>
    <g
       fill="rgb(226,225,225)"
       transform="matrix(1,0,0,1,15,15)"
       stroke="rgb(226,225,225)"
       id="g48">
      <rect
         x="44.5396"
         y="0"
         clip-path="url(#clipPath2)"
         width="89.4023"
         rx="4"
         ry="4"
         height="30"
         stroke="none"
         id="rect50" />
    </g>
    <g
       stroke-miterlimit="1.45"
       font-family="sans-serif"
       transform="matrix(1,0,0,1,15,15)"
       stroke-linecap="butt"
       id="g52">
      <text
         x="56.5396"
         xml:space="preserve"
         y="19.1543"
         clip-path="url(#clipPath2)"
         stroke="none"
         id="text54">Expression</text>
      <rect
         x="44.5396"
         y="0"
         clip-path="url(#clipPath2)"
         fill="none"
         width="89.4023"
         rx="4"
         ry="4"
         height="30"
         id="rect56" />
    </g>
    <g
       fill="rgb(226,225,225)"
       transform="matrix(1,0,0,1,15,15)"
       stroke="rgb(226,225,225)"
       id="g58">
      <rect
         x="0"
         y="70"
         clip-path="url(#clipPath2)"
         width="61.7285"
         rx="4"
         ry="4"
         height="30"
         stroke="none"
         id="rect60" />
    </g>
    <g
       stroke-miterlimit="1.45"
       font-family="sans-serif"
       transform="matrix(1,0,0,1,15,15)"
       stroke-linecap="butt"
       id="g62">
      <text
         x="12"
         xml:space="preserve"
         y="89.1543"
         clip-path="url(#clipPath2)"
         stroke="none"
         id="text64">Literal</text>
      <rect
         x="0"
         y="70"
         clip-path="url(#clipPath2)"
         fill="none"
         width="61.7285"
         rx="4"
         ry="4"
         height="30"
         id="rect66" />
    </g>
    <g
       fill="rgb(226,225,225)"
       transform="matrix(1,0,0,1,15,15)"
       stroke="rgb(226,225,225)"
       id="g68">
      <rect
         x="81.7285"
         y="70"
         clip-path="url(#clipPath2)"
         width="131.7773"
         rx="4"
         ry="4"
         height="30"
         stroke="none"
         id="rect70" />
    </g>
    <g
       stroke-miterlimit="1.45"
       font-family="sans-serif"
       transform="matrix(1,0,0,1,15,15)"
       stroke-linecap="butt"
       id="g72">
      <text
         x="93.7285"
         xml:space="preserve"
         y="89.1543"
         clip-path="url(#clipPath2)"
         stroke="none"
         id="text74">Binary Expression</text>
      <rect
         x="81.7285"
         y="70"
         clip-path="url(#clipPath2)"
         fill="none"
         width="131.7773"
         rx="4"
         ry="4"
         height="30"
         id="rect76" />
    </g>
    <g
       fill="rgb(226,225,225)"
       transform="matrix(1,0,0,1,15,15)"
       stroke="rgb(226,225,225)"
       id="g78">
      <rect
         x="65.085"
         y="140"
         clip-path="url(#clipPath2)"
         width="165.0645"
         rx="4"
         ry="4"
         height="30"
         stroke="none"
         id="rect80" />
    </g>
    <g
       stroke-miterlimit="1.45"
       font-family="sans-serif"
       transform="matrix(1,0,0,1,15,15)"
       stroke-linecap="butt"
       id="g82">
      <text
         x="77.085"
         xml:space="preserve"
         y="159.1543"
         clip-path="url(#clipPath2)"
         stroke="none"
         id="text84">Comparison Expression</text>
      <rect
         x="65.085"
         y="140"
         clip-path="url(#clipPath2)"
         fill="none"
         width="165.0645"
         rx="4"
         ry="4"
         height="30"
         id="rect86" />
    </g>
    <g
       fill="rgb(226,225,225)"
       transform="matrix(1,0,0,1,15,15)"
       stroke="rgb(226,225,225)"
       id="g88">
      <rect
         x="50.2637"
         y="210"
         clip-path="url(#clipPath2)"
         width="194.707"
         rx="4"
         ry="4"
         height="30"
         stroke="none"
         id="rect90" />
    </g>
    <g
       stroke-miterlimit="1.45"
       font-family="sans-serif"
       transform="matrix(1,0,0,1,15,15)"
       stroke-linecap="butt"
       id="g92">
      <text
         x="62.2637"
         xml:space="preserve"
         y="229.1543"
         clip-path="url(#clipPath2)"
         stroke="none"
         id="text94">Greater Or Equal Expression</text>
      <rect
         x="50.2637"
         y="210"
         clip-path="url(#clipPath2)"
         fill="none"
         width="194.707"
         rx="4"
         ry="4"
         height="30"
         id="rect96" />
    </g>
    <g
       fill="rgb(226,225,225)"
       transform="matrix(1,0,0,1,15,15)"
       stroke="rgb(226,225,225)"
       id="g98">
      <rect
         x="318.4033"
         y="0"
         clip-path="url(#clipPath2)"
         width="53.4316"
         rx="4"
         ry="4"
         height="30"
         stroke="none"
         id="rect100" />
    </g>
    <g
       stroke-miterlimit="1.45"
       font-family="sans-serif"
       transform="matrix(1,0,0,1,15,15)"
       stroke-linecap="butt"
       id="g102">
      <text
         x="330.4033"
         xml:space="preserve"
         y="19.1543"
         clip-path="url(#clipPath2)"
         stroke="none"
         id="text104">Type</text>
      <rect
         x="318.4033"
         y="0"
         clip-path="url(#clipPath2)"
         fill="none"
         width="53.4316"
         rx="4"
         ry="4"
         height="30"
         id="rect106" />
    </g>
    <g
       fill="rgb(226,225,225)"
       transform="matrix(1,0,0,1,15,15)"
       stroke="rgb(226,225,225)"
       id="g108">
      <rect
         x="289.9707"
         y="70"
         clip-path="url(#clipPath2)"
         width="110.2969"
         rx="4"
         ry="4"
         height="30"
         stroke="none"
         id="rect110" />
    </g>
    <g
       stroke-miterlimit="1.45"
       font-family="sans-serif"
       transform="matrix(1,0,0,1,15,15)"
       stroke-linecap="butt"
       id="g112">
      <text
         x="301.9707"
         xml:space="preserve"
         y="89.1543"
         clip-path="url(#clipPath2)"
         stroke="none"
         id="text114">Primitive Type</text>
      <rect
         x="289.9707"
         y="70"
         clip-path="url(#clipPath2)"
         fill="none"
         width="110.2969"
         rx="4"
         ry="4"
         height="30"
         id="rect116" />
    </g>
    <g
       fill="rgb(226,225,225)"
       transform="matrix(1,0,0,1,15,15)"
       stroke="rgb(226,225,225)"
       id="g118">
      <rect
         x="293.2607"
         y="140"
         clip-path="url(#clipPath2)"
         width="103.7168"
         rx="4"
         ry="4"
         height="30"
         stroke="none"
         id="rect120" />
    </g>
    <g
       stroke-miterlimit="1.45"
       font-family="sans-serif"
       transform="matrix(1,0,0,1,15,15)"
       stroke-linecap="butt"
       id="g122">
      <text
         x="305.2607"
         xml:space="preserve"
         y="159.1543"
         clip-path="url(#clipPath2)"
         stroke="none"
         id="text124">Integral Type</text>
      <rect
         x="293.2607"
         y="140"
         clip-path="url(#clipPath2)"
         fill="none"
         width="103.7168"
         rx="4"
         ry="4"
         height="30"
         id="rect126" />
    </g>
    <g
       fill="rgb(226,225,225)"
       transform="matrix(1,0,0,1,15,15)"
       stroke="rgb(226,225,225)"
       id="g128">
      <rect
         x="300.9365"
         y="210"
         clip-path="url(#clipPath2)"
         width="88.3652"
         rx="4"
         ry="4"
         height="30"
         stroke="none"
         id="rect130" />
    </g>
    <g
       stroke-miterlimit="1.45"
       font-family="sans-serif"
       transform="matrix(1,0,0,1,15,15)"
       stroke-linecap="butt"
       id="g132">
      <text
         x="312.9365"
         xml:space="preserve"
         y="229.1543"
         clip-path="url(#clipPath2)"
         stroke="none"
         id="text134">Int16 Type</text>
      <rect
         x="300.9365"
         y="210"
         clip-path="url(#clipPath2)"
         fill="none"
         width="88.3652"
         rx="4"
         ry="4"
         height="30"
         id="rect136" />
    </g>
    <g
       fill="rgb(226,225,225)"
       transform="matrix(1,0,0,1,15,15)"
       stroke="rgb(226,225,225)"
       id="g138">
      <rect
         x="295.2559"
         y="285"
         clip-path="url(#clipPath2)"
         width="119.1738"
         rx="4"
         ry="4"
         height="30"
         stroke="none"
         id="rect140" />
    </g>
    <g
       stroke-miterlimit="1.45"
       font-family="sans-serif"
       transform="matrix(1,0,0,1,15,15)"
       stroke-linecap="butt"
       id="g142">
      <text
         x="307.2559"
         xml:space="preserve"
         y="304.1543"
         clip-path="url(#clipPath2)"
         stroke="none"
         id="text144">Module Content</text>
      <rect
         x="295.2559"
         y="285"
         clip-path="url(#clipPath2)"
         fill="none"
         width="119.1738"
         rx="4"
         ry="4"
         height="30"
         id="rect146" />
    </g>
    <g
       fill="rgb(226,225,225)"
       transform="matrix(1,0,0,1,15,15)"
       stroke="rgb(226,225,225)"
       id="g148">
      <rect
         x="316.9941"
         y="355"
         clip-path="url(#clipPath2)"
         width="75.6973"
         rx="4"
         ry="4"
         height="30"
         stroke="none"
         id="rect150" />
    </g>
    <g
       stroke-miterlimit="1.45"
       font-family="sans-serif"
       transform="matrix(1,0,0,1,15,15)"
       stroke-linecap="butt"
       id="g152">
      <text
         x="328.9941"
         xml:space="preserve"
         y="374.1543"
         clip-path="url(#clipPath2)"
         stroke="none"
         id="text154">Function</text>
      <rect
         x="316.9941"
         y="355"
         clip-path="url(#clipPath2)"
         fill="none"
         width="75.6973"
         rx="4"
         ry="4"
         height="30"
         id="rect156" />
      <path
         fill="none"
         d="M102.4436 315.0049 L69.4066 349.233"
         clip-path="url(#clipPath2)"
         id="path158" />
      <path
         d="M63.8508 354.9891 L75.7821 349.8273 L70.1011 348.5135 L68.5869 342.8826 Z"
         clip-path="url(#clipPath2)"
         stroke="none"
         id="path160" />
      <path
         fill="none"
         d="M131.409 315.0049 L164.4459 349.233"
         clip-path="url(#clipPath2)"
         id="path162" />
      <path
         d="M170.0017 354.9891 L165.2656 342.8826 L163.7514 348.5135 L158.0704 349.8273 Z"
         clip-path="url(#clipPath2)"
         stroke="none"
         id="path164" />
      <path
         fill="none"
         d="M76.7274 30.0049 L48.5063 63.8452"
         clip-path="url(#clipPath2)"
         id="path166" />
      <path
         d="M43.3826 69.9891 L54.9081 63.9756 L49.1467 63.0772 L47.2282 57.5709 Z"
         clip-path="url(#clipPath2)"
         stroke="none"
         id="path168" />
      <path
         fill="none"
         d="M101.754 30.0049 L129.9752 63.8452"
         clip-path="url(#clipPath2)"
         id="path170" />
      <path
         d="M135.0989 69.9891 L131.2533 57.5709 L129.3347 63.0772 L123.5734 63.9756 Z"
         clip-path="url(#clipPath2)"
         stroke="none"
         id="path172" />
      <path
         fill="none"
         d="M147.6172 100.0049 L147.6172 131.9891"
         clip-path="url(#clipPath2)"
         id="path174" />
      <path
         d="M147.6172 139.9891 L152.6172 127.9891 L147.6172 130.9891 L142.6172 127.9891 Z"
         clip-path="url(#clipPath2)"
         stroke="none"
         id="path176" />
      <path
         fill="none"
         d="M147.6172 170.0049 L147.6172 201.9891"
         clip-path="url(#clipPath2)"
         id="path178" />
      <path
         d="M147.6172 209.9891 L152.6172 197.9891 L147.6172 200.9891 L142.6172 197.9891 Z"
         clip-path="url(#clipPath2)"
         stroke="none"
         id="path180" />
      <path
         fill="none"
         d="M345.1191 30.0049 L345.1191 61.9891"
         clip-path="url(#clipPath2)"
         id="path182" />
      <path
         d="M345.1191 69.9891 L350.1191 57.9891 L345.1191 60.9891 L340.1191 57.9891 Z"
         clip-path="url(#clipPath2)"
         stroke="none"
         id="path184" />
      <path
         fill="none"
         d="M345.1191 100.0049 L345.1191 131.9891"
         clip-path="url(#clipPath2)"
         id="path186" />
      <path
         d="M345.1191 139.9891 L350.1191 127.9891 L345.1191 130.9891 L340.1191 127.9891 Z"
         clip-path="url(#clipPath2)"
         stroke="none"
         id="path188" />
      <path
         fill="none"
         d="M345.1191 170.0049 L345.1191 201.9891"
         clip-path="url(#clipPath2)"
         id="path190" />
      <path
         d="M345.1191 209.9891 L350.1191 197.9891 L345.1191 200.9891 L340.1191 197.9891 Z"
         clip-path="url(#clipPath2)"
         stroke="none"
         id="path192" />
      <path
         fill="none"
         d="M354.8428 315.0049 L354.8428 346.9891"
         clip-path="url(#clipPath2)"
         id="path194" />
      <path
         d="M354.8428 354.9891 L359.8428 342.9891 L354.8428 345.9891 L349.8428 342.9891 Z"
         clip-path="url(#clipPath2)"
         stroke="none"
         id="path196" />
    </g>
  </g>
</svg>
